<svg width="72" height="72" viewBox="0 0 72 72" fill="none" xmlns="http://www.w3.org/2000/svg">
<circle cx="36" cy="36" r="36" fill="white"/>
<path d="M18 49.5062C18 47.0244 20.0119 45.0125 22.4938 45.0125H48.4577C50.9395 45.0125 52.9515 47.0244 52.9515 49.5062C52.9515 51.988 50.9395 54 48.4577 54H22.4938C20.0119 54 18 51.988 18 49.5062Z" fill="#349B60" fill-opacity="0.2"/>
<path fill-rule="evenodd" clip-rule="evenodd" d="M48.4577 46.0111H22.4938C20.5634 46.0111 18.9986 47.5759 18.9986 49.5062C18.9986 51.4365 20.5634 53.0014 22.4938 53.0014H48.4577C50.388 53.0014 51.9528 51.4365 51.9528 49.5062C51.9528 47.5759 50.388 46.0111 48.4577 46.0111ZM22.4938 45.0125C20.0119 45.0125 18 47.0244 18 49.5062C18 51.988 20.0119 54 22.4938 54H48.4577C50.9395 54 52.9515 51.988 52.9515 49.5062C52.9515 47.0244 50.9395 45.0125 48.4577 45.0125H22.4938Z" fill="#080708"/>
<path d="M26.7875 49.5063C26.7875 50.8299 25.7145 51.903 24.3908 51.903C23.0672 51.903 21.9941 50.8299 21.9941 49.5063C21.9941 48.1826 23.0672 47.1096 24.3908 47.1096C25.7145 47.1096 26.7875 48.1826 26.7875 49.5063Z" fill="white"/>
<path fill-rule="evenodd" clip-rule="evenodd" d="M24.3908 51.1041C25.2732 51.1041 25.9886 50.3887 25.9886 49.5063C25.9886 48.6239 25.2732 47.9085 24.3908 47.9085C23.5084 47.9085 22.793 48.6239 22.793 49.5063C22.793 50.3887 23.5084 51.1041 24.3908 51.1041ZM24.3908 51.903C25.7145 51.903 26.7875 50.8299 26.7875 49.5063C26.7875 48.1826 25.7145 47.1096 24.3908 47.1096C23.0672 47.1096 21.9941 48.1826 21.9941 49.5063C21.9941 50.8299 23.0672 51.903 24.3908 51.903Z" fill="#080708"/>
<path d="M34.1771 49.5063C34.1771 50.8299 33.1041 51.903 31.7805 51.903C30.4568 51.903 29.3838 50.8299 29.3838 49.5063C29.3838 48.1826 30.4568 47.1096 31.7805 47.1096C33.1041 47.1096 34.1771 48.1826 34.1771 49.5063Z" fill="white"/>
<path fill-rule="evenodd" clip-rule="evenodd" d="M31.7805 51.1041C32.6629 51.1041 33.3782 50.3887 33.3782 49.5063C33.3782 48.6239 32.6629 47.9085 31.7805 47.9085C30.898 47.9085 30.1827 48.6239 30.1827 49.5063C30.1827 50.3887 30.898 51.1041 31.7805 51.1041ZM31.7805 51.903C33.1041 51.903 34.1771 50.8299 34.1771 49.5063C34.1771 48.1826 33.1041 47.1096 31.7805 47.1096C30.4568 47.1096 29.3838 48.1826 29.3838 49.5063C29.3838 50.8299 30.4568 51.903 31.7805 51.903Z" fill="#080708"/>
<path d="M41.5668 49.5063C41.5668 50.8299 40.4938 51.903 39.1701 51.903C37.8465 51.903 36.7734 50.8299 36.7734 49.5063C36.7734 48.1826 37.8465 47.1096 39.1701 47.1096C40.4938 47.1096 41.5668 48.1826 41.5668 49.5063Z" fill="white"/>
<path fill-rule="evenodd" clip-rule="evenodd" d="M39.1701 51.1041C40.0525 51.1041 40.7679 50.3887 40.7679 49.5063C40.7679 48.6239 40.0525 47.9085 39.1701 47.9085C38.2877 47.9085 37.5723 48.6239 37.5723 49.5063C37.5723 50.3887 38.2877 51.1041 39.1701 51.1041ZM39.1701 51.903C40.4938 51.903 41.5668 50.8299 41.5668 49.5063C41.5668 48.1826 40.4938 47.1096 39.1701 47.1096C37.8465 47.1096 36.7734 48.1826 36.7734 49.5063C36.7734 50.8299 37.8465 51.903 39.1701 51.903Z" fill="#080708"/>
<path d="M48.9574 49.5063C48.9574 50.8299 47.8844 51.903 46.5607 51.903C45.2371 51.903 44.1641 50.8299 44.1641 49.5063C44.1641 48.1826 45.2371 47.1096 46.5607 47.1096C47.8844 47.1096 48.9574 48.1826 48.9574 49.5063Z" fill="white"/>
<path fill-rule="evenodd" clip-rule="evenodd" d="M46.5607 51.1041C47.4432 51.1041 48.1585 50.3887 48.1585 49.5063C48.1585 48.6239 47.4432 47.9085 46.5607 47.9085C45.6783 47.9085 44.963 48.6239 44.963 49.5063C44.963 50.3887 45.6783 51.1041 46.5607 51.1041ZM46.5607 51.903C47.8844 51.903 48.9574 50.8299 48.9574 49.5063C48.9574 48.1826 47.8844 47.1096 46.5607 47.1096C45.2371 47.1096 44.1641 48.1826 44.1641 49.5063C44.1641 50.8299 45.2371 51.903 46.5607 51.903Z" fill="#080708"/>
<path fill-rule="evenodd" clip-rule="evenodd" d="M21.9444 18.9986C20.5656 18.9986 19.4478 20.1163 19.4478 21.4951V46.3587L20.1588 45.7366C20.2366 45.6686 20.3245 45.613 20.4193 45.5719L21.597 45.0615L23.2998 34.983C23.4035 34.3692 24.0373 33.9989 24.623 34.2099L29.9339 36.1234L26.1875 23.0308C25.7311 21.4357 26.9286 19.8474 28.5877 19.8474H41.3674C41.9189 19.8474 42.366 20.2945 42.366 20.846V21.6949H42.9152V18.9986H21.9444ZM18.4492 21.4951C18.4492 19.5648 20.014 18 21.9444 18H42.9152C43.4668 18 43.9139 18.4471 43.9139 18.9986V21.6949C43.9139 22.2464 43.4668 22.6935 42.9152 22.6935H42.366C41.8145 22.6935 41.3674 22.2464 41.3674 21.6949V20.846H28.5877C27.5923 20.846 26.8737 21.799 27.1476 22.7561L31.4306 37.7241L24.2845 35.1494L22.5817 45.2279C22.5254 45.5612 22.3043 45.8434 21.9941 45.9778L20.8164 46.4882L18.4492 48.5594V21.4951Z" fill="#080708"/>
<path d="M37.8232 41.1438V31.6737C37.8232 31.6044 37.892 31.5562 37.9571 31.5798L44.117 33.8109C44.1468 33.8217 44.18 33.8177 44.2064 33.8001L47.4544 31.6348C47.5208 31.5906 47.6096 31.6381 47.6096 31.7179V41.1923C47.6096 41.2697 47.5254 41.3177 47.4588 41.2782L41.7809 37.9099C41.7434 37.8876 41.6957 37.8923 41.6633 37.9215L37.9898 41.2182C37.9255 41.2759 37.8232 41.2302 37.8232 41.1438Z" fill="#D7F0EA"/>
<path fill-rule="evenodd" clip-rule="evenodd" d="M38.3219 32.2432V40.2486L41.3291 37.5498C41.3291 37.5498 41.3291 37.5498 41.3291 37.5498C41.5239 37.375 41.8098 37.3469 42.035 37.4805L41.7896 37.8941L41.7802 37.9099M41.7896 37.8941L42.035 37.4805L47.1096 40.4909V32.4642L44.4827 34.2156C44.3243 34.3211 44.1252 34.3452 43.9463 34.2804L38.3219 32.2432M47.7129 40.8487L47.7124 40.8484C47.7126 40.8485 47.7127 40.8486 47.7129 40.8487ZM37.3232 31.6737C37.3232 31.2582 37.7358 30.9688 38.1265 31.1103L44.0966 33.2727L47.1767 31.2193C47.5749 30.9539 48.1083 31.2393 48.1083 31.7179V41.1923C48.1083 41.6567 47.6028 41.9445 47.2034 41.7076L41.7777 38.489L38.3226 41.5897C37.9368 41.9359 37.3232 41.6622 37.3232 41.1438V31.6737ZM44.286 33.3413L44.2864 33.3414L44.1503 33.717L44.2864 33.3414C44.2862 33.3414 44.2861 33.3414 44.286 33.3413Z" fill="#080708"/>
<path fill-rule="evenodd" clip-rule="evenodd" d="M39.121 25.3072L32.693 30.0639L35.675 34.986V33.9233L34.591 31.1895C34.4884 30.931 34.5773 30.6359 34.8055 30.477L39.7326 27.0456C39.6632 26.9531 39.6045 26.8552 39.5543 26.759C39.4412 26.5418 39.3532 26.2961 39.2841 26.0518C39.2153 25.8082 39.1617 25.5529 39.121 25.3072ZM39.074 24.0997C39.46 23.814 39.9919 24.0745 40.0303 24.5337C40.0612 24.9037 40.1297 25.3718 40.2451 25.7802C40.3028 25.9844 40.3686 26.1607 40.44 26.2976C40.5141 26.4399 40.5769 26.5063 40.6115 26.531C40.793 26.6603 40.8698 26.8575 40.8925 27.0005C40.9126 27.1272 40.9186 27.4366 40.6425 27.6289L35.6359 31.1156L36.6315 33.6261C36.6593 33.6964 36.6737 33.7714 36.6737 33.847V36.4163C36.6737 37.0226 35.8762 37.2453 35.562 36.7267L31.6502 30.2699C31.4899 30.0052 31.5575 29.6619 31.8063 29.4778L39.074 24.0997Z" fill="#080708"/>
<path fill-rule="evenodd" clip-rule="evenodd" d="M46.1104 25.3072L52.5384 30.0639L49.5564 34.986V33.9233L50.6405 31.1895C50.743 30.931 50.6541 30.6359 50.4259 30.477L45.4989 27.0456C45.5682 26.9531 45.627 26.8552 45.6771 26.759C45.7903 26.5418 45.8783 26.2961 45.9473 26.0518C46.0162 25.8082 46.0698 25.5529 46.1104 25.3072ZM46.1574 24.0997C45.7714 23.814 45.2395 24.0745 45.2012 24.5337C45.1703 24.9037 45.1018 25.3718 44.9863 25.7802C44.9286 25.9844 44.8628 26.1607 44.7915 26.2976C44.7173 26.4399 44.6545 26.5063 44.6199 26.531C44.4384 26.6603 44.3616 26.8575 44.339 27.0005C44.3189 27.1272 44.3128 27.4366 44.589 27.6289L49.5955 31.1156L48.6 33.6261C48.5721 33.6964 48.5578 33.7714 48.5578 33.847V36.4163C48.5578 37.0226 49.3552 37.2453 49.6694 36.7267L53.5812 30.2699C53.7416 30.0052 53.674 29.6619 53.4252 29.4778L46.1574 24.0997Z" fill="#080708"/>
<path d="M46.0113 25.19C46.0113 27.0651 44.4912 28.5852 42.616 28.5852C40.7408 28.5852 39.2207 27.0651 39.2207 25.19C39.2207 23.3148 40.7408 21.7947 42.616 21.7947C44.4912 21.7947 46.0113 23.3148 46.0113 25.19Z" fill="#D7F0EA"/>
<path fill-rule="evenodd" clip-rule="evenodd" d="M42.616 27.5866C43.9396 27.5866 45.0127 26.5136 45.0127 25.19C45.0127 23.8663 43.9396 22.7933 42.616 22.7933C41.2923 22.7933 40.2193 23.8663 40.2193 25.19C40.2193 26.5136 41.2923 27.5866 42.616 27.5866ZM42.616 28.5852C44.4912 28.5852 46.0113 27.0651 46.0113 25.19C46.0113 23.3148 44.4912 21.7947 42.616 21.7947C40.7408 21.7947 39.2207 23.3148 39.2207 25.19C39.2207 27.0651 40.7408 28.5852 42.616 28.5852Z" fill="#080708"/>
<path d="M33.4198 38.0989L32.6392 45.1734C32.6336 45.224 32.5908 45.2623 32.5399 45.2623H22.013C21.951 45.2623 21.904 45.2064 21.9146 45.1453L23.7709 34.4471C23.7816 34.3851 23.8463 34.3484 23.905 34.3709L33.3563 37.9947C33.3987 38.011 33.4248 38.0538 33.4198 38.0989Z" fill="#D7F0EA"/>
<path fill-rule="evenodd" clip-rule="evenodd" d="M23.2794 34.3618C23.3439 33.99 23.7319 33.7697 24.0842 33.9048L33.5355 37.5286C33.7899 37.6261 33.9464 37.883 33.9165 38.1538L33.1359 45.2282C33.1024 45.5318 32.8458 45.7616 32.5404 45.7616H22.0134C21.6415 45.7616 21.3595 45.4264 21.423 45.06L23.2794 34.3618ZM24.1802 35.0111L22.4881 44.763H32.1826L32.8901 38.3507L24.1802 35.0111Z" fill="#080708"/>
</svg>
