<svg width="72" height="72" viewBox="0 0 72 72" fill="none" xmlns="http://www.w3.org/2000/svg">
<circle cx="36" cy="36" r="36" fill="white"/>
<g clip-path="url(#clip0_306_9383)">
<circle cx="34.8236" cy="34.8236" r="7.09314" fill="#D7F0EA" stroke="#080708" stroke-width="1.5"/>
<path d="M34.8235 16C24.4444 16 16 24.4444 16 34.8235C16 45.2027 24.4444 53.6471 34.8235 53.6471C45.2027 53.6471 53.6471 45.2027 53.6471 34.8235C53.6471 24.4444 45.2027 16 34.8235 16ZM34.8235 52.3261C25.1725 52.3261 17.3209 44.4746 17.3209 34.8235C17.3209 25.1725 25.1725 17.3209 34.8235 17.3209C44.4746 17.3209 52.3261 25.1725 52.3261 34.8235C52.3261 44.4746 44.4746 52.3261 34.8235 52.3261Z" fill="#080708"/>
<path d="M34.8233 30.5305C32.4562 30.5305 30.5303 32.4565 30.5303 34.8236C30.5303 37.1907 32.4563 39.1166 34.8233 39.1166C37.1905 39.1166 39.1164 37.1906 39.1164 34.8236C39.1164 32.4564 37.1905 30.5305 34.8233 30.5305ZM34.8233 37.7957C33.1844 37.7957 31.8512 36.4625 31.8512 34.8236C31.8512 33.1846 33.1844 31.8514 34.8233 31.8514C36.4623 31.8514 37.7955 33.1846 37.7955 34.8236C37.7955 36.4625 36.4623 37.7957 34.8233 37.7957Z" fill="#080708"/>
<path d="M27.6394 21.6606C27.4525 21.3471 27.0473 21.2438 26.7339 21.431C23.407 23.4117 20.982 26.5406 19.9054 30.2415C19.8035 30.5918 20.0047 30.9581 20.355 31.06C20.4162 31.078 20.4788 31.0864 20.5394 31.0864C20.8258 31.0864 21.0896 30.8993 21.1731 30.6105C22.1561 27.232 24.3711 24.3747 27.4096 22.5661C27.7233 22.3797 27.8257 21.974 27.6394 21.6606Z" fill="#080708"/>
<circle cx="34.8231" cy="34.8236" r="3.95588" fill="white" stroke="#080708" stroke-width="1.5"/>
</g>
<circle cx="48.1566" cy="48.1569" r="7.09314" fill="#D7F0EA" stroke="#080708" stroke-width="1.5"/>
<g clip-path="url(#clip1_306_9383)">
<path d="M50.9191 49.8305H49.1239V49.2651L48.6075 49.949L48.0908 50.6328L48.6075 51.3167L49.1239 52.0007V51.6095L50.0807 51.5733C50.9264 51.5222 51.1286 51.1729 51.1286 51.1729L52.0788 49.4073C51.7286 49.8957 50.9191 49.8305 50.9191 49.8305Z" fill="#080708"/>
<path d="M51.4122 47.29L49.8809 48.1796L50.6464 49.5069C51.4267 49.5796 51.667 49.339 51.667 49.339C52.2922 48.9854 51.9445 48.2012 51.9445 48.2012L51.4122 47.29Z" fill="#080708"/>
<path d="M45.2996 51.0014C45.0633 50.449 45.5393 49.7905 45.5393 49.7905L46.47 48.2554L46.9531 48.5486L46.6358 47.7523L46.3192 46.9561L45.4665 47.0432L44.6138 47.1306L44.9481 47.3331L44.4836 48.1702C44.0888 48.9197 44.2832 49.2738 44.2832 49.2738L45.2996 51.0014Z" fill="#080708"/>
<path d="M45.5659 50.7302C45.5445 51.4485 46.3951 51.5571 46.3951 51.5571L47.451 51.5745L47.4839 49.8035L45.952 49.7705C45.4851 50.3998 45.5659 50.7302 45.5659 50.7302Z" fill="#080708"/>
<path d="M49.3912 47.1127L50.2381 47.2422L50.5941 46.4626L50.9506 45.6834L50.6067 45.8691L50.1202 45.0448C49.6734 44.3248 49.2696 44.3132 49.2696 44.3132L47.2646 44.3158C47.8612 44.3917 48.1881 45.1351 48.1881 45.1351L49.0409 46.7144L48.5439 46.983L49.3912 47.1127Z" fill="#080708"/>
<path d="M47.9972 45.4364C47.6906 44.7153 47.3645 44.6177 47.3645 44.6177C46.7561 44.236 46.2319 44.9145 46.2319 44.9145L45.6826 45.8162L47.1931 46.7408L47.9972 45.4364Z" fill="#080708"/>
</g>
<defs>
<clipPath id="clip0_306_9383">
<rect width="37.6471" height="37.6471" fill="white" transform="translate(16 16)"/>
</clipPath>
<clipPath id="clip1_306_9383">
<rect width="7.84314" height="7.84314" fill="white" transform="translate(44.2354 44.2354)"/>
</clipPath>
</defs>
</svg>
